<?xml version="1.0" encoding="utf-8"?>
<!-- Generator: Adobe Illustrator 16.0.0, SVG Export Plug-In . SVG Version: 6.00 Build 0)  -->
<!DOCTYPE svg PUBLIC "-//W3C//DTD SVG 1.1//EN" "http://www.w3.org/Graphics/SVG/1.1/DTD/svg11.dtd">
<svg version="1.1" id="Layer_1" xmlns="http://www.w3.org/2000/svg" xmlns:xlink="http://www.w3.org/1999/xlink" x="0px" y="0px"
	 width="160px" height="39px" viewBox="0 0 160 39" enable-background="new 0 0 160 39" xml:space="preserve">
<g>
	<path fill="#FFFFFF" d="M41.98,11.327C37.529,5.181,33.35,2.56,29.553,3.54L29.55,3.546C25.122-3.468,8.312,1.902,5.167,2.981
		c0,0-1.404,2.443-5.167,5.737l6.894,28.798c13.203-7.01,30.439-8.766,39.879-6.465c5.689,1.387,9.776,2.993,13.562,7.479
		l0.447-0.467C60.781,38.062,45.455,16.343,41.98,11.327z"/>
	<path fill="#DEB408" d="M41.98,11.328C37.529,5.181,33.35,2.56,29.553,3.54L29.55,3.547C25.122-3.468,8.312,1.902,5.167,2.981
		c0,0-1.404,2.443-5.167,5.737l6.894,28.798c13.203-7.01,30.439-8.763,39.879-6.465c5.689,1.387,9.776,2.993,13.562,7.479
		l0.447-0.465C60.781,38.064,45.455,16.343,41.98,11.328z M32.893,11.739c-6.255-2.6-18.179,0.516-24.037,2.35l-0.723-2.227
		C13.79,10.073,25.837,7.134,32.893,11.739z M7.947,11.298L7.228,9.086c4.956-1.563,18.507-5.116,24.768,0.326
		C25.396,5.921,11.001,10.305,7.947,11.298z M33.371,14.033c-7.141-2.027-19.665,1.581-23.611,2.828l-0.718-2.208
		C19.414,11.479,27.721,11.284,33.371,14.033z M33.881,16.457c-7.639-1.478-20.011,2.169-23.218,3.18l-0.719-2.208
		C19.933,14.375,27.828,14.044,33.881,16.457z M34.199,18.946c-7.977-0.922-19.862,2.602-22.629,3.47l-0.721-2.212
		C17.798,18.112,26.262,16.376,34.199,18.946z M34.619,21.523c-8.122-0.506-19.452,2.832-22.145,3.67l-0.718-2.209
		C19.961,20.551,27.271,19.444,34.619,21.523z M34.646,24.191c-6.098-0.031-13.521,1.658-17.953,2.841
		c-0.488,0.132-0.989,0.27-1.494,0.411c-0.797,0.224-1.41,0.406-1.819,0.531l-0.721-2.216
		C20.496,23.379,27.165,22.363,34.646,24.191z M44.412,28.174l-1.178-1.947c2.42-0.871,4.349,0.065,6.798,1.557
		C48.292,27.214,46.409,27.223,44.412,28.174z M42.916,25.691l-1.129-1.86c2.231-0.933,4.437-0.188,6.706,1.324
		C46.733,24.541,45.002,24.592,42.916,25.691z M41.482,23.32l-1.225-2.033c2.553-0.924,4.62-0.004,7.017,1.802
		C45.367,22.21,43.796,22.154,41.482,23.32z M39.947,20.775l-1.154-1.91c2.269-0.801,4.673,0.06,6.993,1.732
		C43.996,19.845,42.053,19.754,39.947,20.775z M38.485,18.351l-1.209-2.002c2.44-0.816,5.01,0.292,7.36,2.124
		C42.733,17.521,40.7,17.327,38.485,18.351z M36.967,15.836l-1.19-1.974c0.114-0.04,0.228-0.086,0.338-0.124
		c2.676-0.83,4.842,0.572,7.346,2.886C41.252,15.16,39.494,14.761,36.967,15.836z M42.327,14.702
		c-2.184-1.615-3.891-2.33-6.394-1.514c-0.155,0.046-0.308,0.107-0.459,0.17l-1.171-1.933
		C37.358,10.309,39.674,12.029,42.327,14.702z M34.03,10.904L34.03,10.904l-0.029,0.014l-1.174-1.945L32.83,8.97
		c3.014-0.918,5.462,0.664,8.026,3.229C38.629,10.568,36.598,9.911,34.03,10.904z M39.629,10.098
		c-2.24-1.722-4.485-2.568-7.108-1.646l-0.005,0.003l-1.163-1.927h0.013C34.526,5.771,37.072,7.433,39.629,10.098z M29.897,4.074
		c0.604-0.123,1.202-0.178,1.784-0.123c1.171,0.107,2.39,0.565,3.641,1.362c0.997,0.664,1.98,1.537,2.959,2.576
		c-2.551-1.979-4.947-2.594-7.235-1.896L31.035,6L29.88,4.089L29.897,4.074z M30.652,6.88c-6.285-3.703-20.22,0.528-23.607,1.641
		l-0.72-2.215C10.719,4.892,25.105,0.67,30.652,6.88z M7.71,2.801c0.001-0.002,0.003-0.002,0.007-0.004h0.005
		c0.014-0.002,0.021-0.006,0.036-0.011c0,0,0.005-0.001,0.007-0.003C13.43,1.132,25.71-1.66,29.121,3.953
		c0,0.003,0.004,0.01,0.004,0.013l0.283,0.467C23.417,0.372,9.515,4.619,6.142,5.743L5.417,3.52
		c0.491-0.167,1.278-0.425,2.291-0.717L7.71,2.801z M13.562,28.536c8.167-2.478,14.022-3.236,20.075-2.175
		c-6.522,0.326-14.227,2.402-19.408,4.215L13.562,28.536z"/>
	<path fill="#FFFFFF" d="M64.348,14.699h-6.845V0.309h6.677c2.94,0,4.754,1.458,4.754,3.719v0.043c0,1.625-0.868,2.529-1.891,3.104
		c1.663,0.638,2.689,1.605,2.689,3.536v0.041C69.733,13.384,67.596,14.699,64.348,14.699z M65.786,4.563
		c0-0.944-0.742-1.479-2.074-1.479h-3.129v3.043h2.919c1.401,0,2.284-0.454,2.284-1.523V4.563z M66.592,10.321
		c0-0.966-0.729-1.562-2.348-1.562h-3.662v3.165h3.765c1.395,0,2.245-0.492,2.245-1.562V10.321z"/>
	<path fill="#FFFFFF" d="M71.945,14.699V0.309h3.166v14.39H71.945z"/>
	<path fill="#FFFFFF" d="M84.998,14.699h-6.85V0.309h6.676c2.945,0,4.757,1.458,4.757,3.719v0.043c0,1.625-0.871,2.529-1.896,3.104
		c1.664,0.638,2.691,1.605,2.691,3.536v0.041C90.378,13.384,88.24,14.699,84.998,14.699z M86.432,4.563
		c0-0.944-0.736-1.479-2.076-1.479h-3.121v3.043h2.918c1.396,0,2.279-0.454,2.279-1.523V4.563z M87.236,10.321
		c0-0.966-0.723-1.562-2.342-1.562h-3.662v3.165h3.766c1.395,0,2.238-0.492,2.238-1.562V10.321z"/>
	<path fill="#FFFFFF" d="M92.727,14.699V0.309h3.168v11.515h7.178v2.875H92.727z"/>
	<path fill="#FFFFFF" d="M105.409,14.699V0.309h10.856v2.814h-7.711v2.921h6.786v2.817h-6.786v3.023h7.812v2.815H105.409z"/>
	<path fill="#FFFFFF" d="M124.822,14.903c-2.186,0-4.381-0.76-6.106-2.301l1.867-2.241c1.3,1.069,2.651,1.746,4.298,1.746
		c1.294,0,2.078-0.514,2.078-1.356V10.71c0-0.802-0.492-1.213-2.9-1.829c-2.898-0.742-4.771-1.542-4.771-4.401V4.437
		c0-2.606,2.103-4.335,5.041-4.335c2.096,0,3.882,0.657,5.343,1.832l-1.645,2.384c-1.273-0.882-2.524-1.418-3.742-1.418
		c-1.213,0-1.85,0.555-1.85,1.252v0.043c0,0.945,0.616,1.253,3.104,1.89c2.923,0.761,4.564,1.811,4.564,4.317v0.042
		C130.104,13.301,127.918,14.903,124.822,14.903z"/>
	<path fill="#FFFFFF" d="M75.658,33.152l-1.3-3.182h-5.999l-1.299,3.182h-3.185L69.96,18.86h2.874l6.087,14.292H75.658z
		 M71.362,22.609l-1.887,4.604h3.765L71.362,22.609z"/>
	<path fill="#FFFFFF" d="M91.584,33.152v-9.266L87.59,29.95h-0.08l-3.953-6.002v9.204h-3.083v-14.19h3.366l3.729,6l3.736-6h3.362
		v14.19H91.584z"/>
	<path fill="#FFFFFF" d="M97.671,33.152v-14.19h10.683v2.776h-7.603v2.878h6.69v2.78h-6.69v2.978h7.705v2.778H97.671z"/>
	<path fill="#FFFFFF" d="M119.467,33.152l-3.045-4.543h-2.458v4.543h-3.116v-14.19h6.489c1.688,0,3,0.409,3.94,1.235
		c0.939,0.822,1.406,1.974,1.406,3.447v0.039c0,1.151-0.275,2.088-0.84,2.81c-0.561,0.721-1.291,1.251-2.201,1.593l3.469,5.066
		H119.467z M119.521,23.805c0-0.674-0.213-1.183-0.647-1.52c-0.429-0.34-1.035-0.508-1.802-0.508h-3.108v4.076h3.168
		c0.767,0,1.361-0.184,1.776-0.547c0.41-0.367,0.613-0.854,0.613-1.462V23.805z"/>
	<path fill="#FFFFFF" d="M125.238,33.152v-14.19h3.125v14.19H125.238z"/>
	<path fill="#FFFFFF" d="M142.842,31.917c-0.394,0.308-0.822,0.572-1.287,0.798c-0.466,0.225-0.977,0.395-1.531,0.508
		c-0.56,0.117-1.18,0.176-1.861,0.176c-1.046,0-2.012-0.19-2.9-0.569c-0.896-0.375-1.671-0.896-2.312-1.55
		c-0.65-0.657-1.156-1.432-1.524-2.32c-0.365-0.895-0.543-1.845-0.543-2.861v-0.039c0-1.017,0.178-1.964,0.543-2.849
		c0.368-0.89,0.874-1.667,1.524-2.332c0.642-0.671,1.423-1.198,2.325-1.582c0.908-0.386,1.91-0.577,3.004-0.577
		c0.664,0,1.27,0.054,1.818,0.16c0.539,0.108,1.041,0.258,1.486,0.449c0.447,0.188,0.859,0.417,1.236,0.688
		c0.38,0.271,0.728,0.566,1.054,0.895l-1.983,2.285c-0.56-0.495-1.121-0.889-1.697-1.17c-0.571-0.285-1.219-0.428-1.93-0.428
		c-0.598,0-1.15,0.112-1.66,0.346c-0.502,0.229-0.939,0.546-1.306,0.951c-0.36,0.403-0.642,0.875-0.85,1.407
		c-0.202,0.535-0.304,1.104-0.304,1.714v0.043c0,0.604,0.102,1.182,0.304,1.725c0.208,0.537,0.483,1.012,0.84,1.418
		c0.36,0.404,0.787,0.729,1.301,0.964c0.505,0.235,1.062,0.354,1.675,0.354c0.809,0,1.492-0.147,2.055-0.443
		c0.561-0.299,1.117-0.704,1.668-1.219l1.99,2.01C143.607,31.257,143.232,31.605,142.842,31.917z"/>
	<path fill="#FFFFFF" d="M156.628,33.152l-1.301-3.182h-5.999l-1.299,3.182h-3.184l6.08-14.292h2.883l6.082,14.292H156.628z
		 M152.33,22.609l-1.887,4.604h3.771L152.33,22.609z"/>
	<g>
		<path fill="#FFFFFF" d="M132.189,13.125c0-0.374,0.259-0.722,0.658-0.722c0.35,0,0.516,0.258,0.516,0.502
			c0,0.181-0.062,0.375-0.166,0.478c0.438,0,0.645-0.31,1.056-2.257l0.956-4.525h-1.266l0.156-0.568h1.225
			c0.451-2.206,1.458-3.211,2.669-3.224c0.866-0.012,1.292,0.465,1.292,0.953c0,0.492-0.312,0.916-0.725,0.916
			c-0.319,0-0.543-0.206-0.543-0.554c0-0.245,0.104-0.529,0.312-0.708c-0.078-0.065-0.208-0.104-0.374-0.104
			c-0.892,0-1.239,0.851-1.547,2.283l-0.104,0.438h1.639L137.786,6.6h-1.585l-0.877,4.165c-0.491,2.348-1.354,3.07-2.258,3.07
			C132.46,13.834,132.189,13.498,132.189,13.125z"/>
		<path fill="#FFFFFF" d="M142.959,8.212c0,1.935-1.434,3.637-3.096,3.637c-1.37,0-2.141-1.006-2.141-2.386
			c0-1.934,1.43-3.637,3.094-3.637C142.171,5.826,142.959,6.833,142.959,8.212z M140.816,6.343c-1.316,0-2.075,2.127-2.075,3.532
			c0,1.007,0.464,1.446,1.108,1.446c1.317,0,2.09-2.116,2.09-3.534C141.939,6.78,141.464,6.343,140.816,6.343z"/>
		<path fill="#FFFFFF" d="M147.904,5.826c-0.771,0-1.405,0.98-2.191,2.632l-0.104-0.04c0.154-0.477,0.285-1.057,0.285-1.508
			c0-0.685-0.297-1.058-0.814-1.058c-0.548,0-0.988,0.418-1.4,1.153l0.45,0.212c0-0.001,0.002-0.002,0.002-0.003l-0.021-0.008
			c0,0,0.201-0.357,0.439-0.568c0.021-0.021,0.045-0.041,0.065-0.056c0.013-0.011,0.026-0.017,0.039-0.025
			c0.03-0.021,0.063-0.039,0.096-0.05c0.015-0.004,0.024-0.005,0.038-0.008c0.023-0.006,0.047-0.016,0.07-0.016
			c0.248,0,0.363,0.194,0.104,1.187l-1.084,4.062h1.044c0.854-3.133,1.936-4.732,2.463-4.978c-0.035,0.464,0.196,0.735,0.545,0.735
			c0.385,0,0.709-0.412,0.709-0.916C148.643,6.111,148.344,5.826,147.904,5.826z"/>
	</g>
</g>
</svg>
